<?xml version="1.0" encoding="utf-8"?>
<!-- Generator: Adobe Illustrator 15.0.0, SVG Export Plug-In . SVG Version: 6.00 Build 0)  -->
<!DOCTYPE svg PUBLIC "-//W3C//DTD SVG 1.1//EN" "http://www.w3.org/Graphics/SVG/1.1/DTD/svg11.dtd">
<svg version="1.1" xmlns="http://www.w3.org/2000/svg" xmlns:xlink="http://www.w3.org/1999/xlink" x="0px" y="0px"
	 width="283.465px" height="283.465px" viewBox="0 0 283.465 283.465" enable-background="new 0 0 283.465 283.465"
	 xml:space="preserve">
<g id="Background">
</g>
<g id="Foreground">
	<g>
		<g>
			<defs>
				<polygon id="SVGID_1_" points="10.465,272.998 273,272.998 273,10.465 10.465,10.465 10.465,272.998 				"/>
			</defs>
			<clipPath id="SVGID_2_">
				<use xlink:href="#SVGID_1_"  overflow="visible"/>
			</clipPath>
			<rect x="10.465" y="10.465" clip-path="url(#SVGID_2_)" fill="#CF381E" width="262.535" height="262.535"/>
			<path clip-path="url(#SVGID_2_)" fill="#FFFFFF" d="M61.893,165.338h5.042c2.219,0,4.854-0.267,6.637-1.652
				c1.71-1.241,2.671-3.29,2.671-5.384c0-2.324-1.152-4.354-3.172-5.547c-1.84-1.082-4-1.285-6.124-1.285H55.057v1.054l0.502,0.044
				c2.97,0.205,2.701,2.145,2.701,4.517v13.341c0,0.991,0.044,2.522-0.398,3.402c-0.479,0.92-1.493,1.107-2.477,1.173l-0.329,0.027
				v1.075h10.628v-1.075L64.949,175c-1.032-0.065-2.235-0.131-2.714-1.26c-0.392-0.88-0.342-2.324-0.342-3.315V165.338z
				 M61.893,163.981v-8.278c0-0.572-0.05-1.755,0.505-2.165c0.781-0.551,3.155-0.688,4.09-0.688c1.471,0,3.204,0.323,4.378,1.31
				c1.141,1.08,1.701,2.623,1.701,4.164c0,1.612-0.326,2.945-1.457,4.145c-1.303,1.431-2.921,1.514-4.713,1.514H61.893z"/>
			<path clip-path="url(#SVGID_2_)" fill="#FFFFFF" d="M109.217,176.103H89.336v-1.075L89.688,175
				c1.005-0.021,2.065-0.201,2.595-1.173c0.479-0.828,0.391-2.411,0.391-3.351v-13.351c0-2.395,0.272-4.324-2.829-4.559
				l-0.508-0.044v-1.054h10.903v1.054l-0.505,0.044c-1.058,0.072-2.225,0.144-2.805,1.176c-0.505,0.856-0.412,2.415-0.412,3.383
				v14.128c0,0.693,0,1.893,0.385,2.486c0.493,0.827,2.034,0.987,2.907,0.987c5.04,0,8.808-3.041,11.404-6.797l1.058,0.466
				L109.217,176.103z"/>
			<path clip-path="url(#SVGID_2_)" fill="#FFFFFF" d="M138.891,151.47h-3.561l-6.393,15.533c-0.67,1.632-1.643,4.024-2.511,5.512
				c-0.971,1.635-1.606,2.053-3.47,2.464l-0.416,0.049v1.075h10.286v-1.075c-1.821-0.158-3.356-0.551-3.356-2.345
				c0-0.862,0.564-2.258,0.866-3.039l1.084-2.666h9.848l1.739,4.276c0.234,0.512,0.558,1.338,0.558,1.956
				c0,1.407-1.7,1.678-2.989,1.817v1.075h10.785v-1.075c-3.029-0.14-3.615-2.303-4.576-4.551L138.891,151.47z M131.947,165.338
				l4.245-10.766l4.384,10.766H131.947z"/>
			<path clip-path="url(#SVGID_2_)" fill="#FFFFFF" d="M193.566,160.508h-1.533l-0.15-0.277c-1.108-1.633-2.529-3.717-4.145-5.076
				c-2.094-1.701-4.805-2.515-7.864-2.515c-3.681,0-6.521,1.271-8.429,3.566c-1.839,2.258-2.409,5.131-2.409,7.821
				c0,2.486,0.667,5.429,2.66,7.511c2.086,2.147,5.552,3.396,9.121,3.396c4.827,0,9.315-2.301,11.711-5.461l2.027,0.86
				c-3.112,4.194-8.248,6.4-14.529,6.4c-9.828,0-16.694-5.433-16.694-12.908c0-6.905,6.605-12.98,15.964-12.98
				c3.476,0,6.83,0.806,9.432,2.607l1.038-1.664h1.52L193.566,160.508z"/>
			<path clip-path="url(#SVGID_2_)" fill="#FFFFFF" d="M227.886,157.953l-1.107,0.463c-2.798-3.704-5.657-5.429-10.234-5.429
				c-0.969,0-2.575,0.045-3.375,0.69c-0.858,0.644-0.905,1.725-0.905,2.764v5.593h2.297c3.501,0,4.146-0.856,4.559-4.448h1.196
				v10.816h-1.196c-0.087-1.129-0.278-2.214-0.87-3.134c-0.92-1.473-2.208-1.558-3.729-1.558h-2.256v7.218
				c0,0.735,0.071,1.932,0.509,2.556c0.74,0.992,2.443,1.083,3.541,1.083c5.32,0,8.458-2.301,11.572-6.674l1.105,0.509l-3.154,7.7
				h-20.126v-1.075l0.342-0.027c0.916-0.112,1.932-0.131,2.416-1.173c0.41-0.828,0.341-2.411,0.341-3.351v-13.393
				c0-2.372,0.239-4.312-2.573-4.517l-0.525-0.044v-1.054h19.779L227.886,157.953z"/>
			<rect x="35.113" y="186.622" clip-path="url(#SVGID_2_)" fill="#FFFFFF" width="212.879" height="5.113"/>
			<path clip-path="url(#SVGID_2_)" fill="#FFFFFF" d="M39.159,121.742c0-2.44,0.323-4.435-3.364-4.647l-0.665-0.042v-1.127h12.732
				v1.127H47.35c-1.243,0.091-2.577,0.182-3.18,1.239c-0.555,0.916-0.495,2.482-0.495,3.501v5.152h16.157v-5.152
				c0-2.49,0.357-4.485-3.379-4.698l-0.663-0.042v-1.127h12.629v1.127h-0.46c-1.212,0.114-2.528,0.23-3.106,1.239
				c-0.592,0.916-0.501,2.482-0.501,3.451v13.781c0,2.484-0.307,4.439,3.385,4.696l0.682,0.021v1.105H55.79v-1.105h0.437
				c1.241-0.043,2.486-0.232,3.13-1.245c0.555-0.876,0.476-2.48,0.476-3.472v-7.044H43.675v7.044c0,2.505-0.29,4.439,3.414,4.696
				l0.773,0.021v1.105H35.13v-1.105h0.478c1.201-0.093,2.469-0.232,3.093-1.245c0.551-0.876,0.458-2.48,0.458-3.472V121.742z"/>
			<path clip-path="url(#SVGID_2_)" fill="#FFFFFF" d="M109.468,115.646h13.693v1.309h-3.289c-0.508,0-0.879,0.139-1.135,0.367
				c-0.249,0.255-0.391,0.649-0.391,1.114v20.263c0,0.53,0.167,0.856,0.481,1.038c0.302,0.203,0.947,0.317,1.866,0.317h4.143
				c2.211,0,4.002-0.663,5.415-1.936c1.399-1.285,2.418-3.491,3.052-6.666h1.403l-0.686,9.892h-24.553v-1.291h2.418
				c0.832,0,1.417-0.132,1.742-0.416c0.35-0.272,0.501-0.688,0.501-1.332V118.27c0-0.417-0.128-0.713-0.4-0.962
				c-0.284-0.213-0.692-0.352-1.237-0.352h-3.023V115.646z"/>
			<path clip-path="url(#SVGID_2_)" fill="#FFFFFF" d="M143.281,115.646h10.777l9.609,20.317l8.885-20.317h11v1.309h-2.701
				c-0.934,0-1.579,0.097-1.898,0.352c-0.328,0.201-0.508,0.57-0.508,1.129v20.333c0,0.406,0.207,0.738,0.6,0.916
				c0.403,0.255,1.078,0.37,2.043,0.37h2.465v1.291h-14.82v-1.291h2.763c0.809,0,1.381-0.114,1.772-0.37
				c0.387-0.222,0.574-0.547,0.574-0.916v-21.814l-10.647,24.391h-1.498l-11.479-24.294v18.682c0,1.1,0.162,1.931,0.526,2.482
				c0.324,0.598,0.825,1.013,1.475,1.292c0.638,0.302,1.727,0.457,3.227,0.547v1.291h-12.163v-1.291
				c1.968-0.114,3.318-0.464,4.038-1.06c0.707-0.566,1.079-1.558,1.079-3.055v-17.7c0-0.457-0.189-0.773-0.513-0.959
				c-0.343-0.23-0.967-0.327-1.889-0.327h-2.716V115.646z"/>
			<path clip-path="url(#SVGID_2_)" fill="#FFFFFF" d="M191.469,115.712h22.386l0.552,8.63h-1.237
				c-0.538-2.737-1.34-4.58-2.444-5.68c-1.135-1.084-2.557-1.636-4.336-1.636h-5.562c-0.45,0-0.775,0.116-1.032,0.342
				c-0.207,0.209-0.33,0.557-0.33,0.969v9.043h2.445c1.285,0,2.368-0.437,3.186-1.265c0.799-0.879,1.229-2.161,1.293-3.915h1.338
				v11.966h-1.338c-0.063-1.957-0.494-3.335-1.33-4.191c-0.819-0.872-1.954-1.286-3.346-1.286h-2.248v10.219
				c0,0.363,0.146,0.646,0.425,0.87c0.276,0.161,0.71,0.275,1.388,0.275h4.338c4.764,0,7.521-2.759,8.239-8.253h1.45l-0.578,9.544
				h-23.258v-1.291h1.932c0.736,0,1.26-0.114,1.56-0.37c0.323-0.222,0.462-0.57,0.462-1.009v-20.292
				c0-0.458-0.117-0.806-0.391-1.015c-0.247-0.226-0.665-0.342-1.27-0.342h-2.293V115.712z"/>
			<path clip-path="url(#SVGID_2_)" fill="#FFFFFF" d="M243.826,117.647l1.754-2.256h1.291l0.136,9.339H245.7
				c-0.807-2.848-1.967-4.945-3.503-6.25c-1.539-1.314-3.31-1.979-5.316-1.979c-1.647,0-3.039,0.506-4.093,1.376
				c-1.082,0.92-1.608,2.032-1.608,3.313c0,0.803,0.199,1.52,0.619,2.16c0.411,0.582,1.011,1.105,1.824,1.475
				c0.816,0.367,2.332,0.785,4.572,1.245c3.155,0.648,5.364,1.288,6.596,1.935c1.305,0.617,2.216,1.427,2.861,2.388
				c0.615,0.968,0.941,2.1,0.941,3.408c0,2.273-0.874,4.207-2.573,5.724c-1.726,1.523-3.967,2.279-6.653,2.279
				c-2.935,0-5.498-0.868-7.661-2.575l-2.148,2.387h-1.349v-9.958h1.349c0.517,2.767,1.709,4.902,3.604,6.488
				c1.853,1.633,3.953,2.415,6.306,2.415c1.884,0,3.416-0.506,4.619-1.52c1.194-1.034,1.798-2.254,1.798-3.664
				c0-0.821-0.234-1.535-0.673-2.182c-0.438-0.596-1.15-1.125-2.111-1.537c-0.977-0.416-2.877-0.945-5.716-1.52
				c-3.126-0.694-5.239-1.448-6.397-2.271c-1.585-1.179-2.395-2.832-2.395-4.974c0-2.279,0.81-4.096,2.395-5.571
				c1.622-1.397,3.617-2.115,6.104-2.115c1.204,0,2.325,0.184,3.408,0.58C241.578,116.176,242.677,116.779,243.826,117.647z"/>
			<rect x="79.417" y="135.865" clip-path="url(#SVGID_2_)" fill="#FFFFFF" width="18.732" height="5.62"/>
			<path clip-path="url(#SVGID_2_)" fill="#FFFFFF" d="M91.973,131.297c1.751-0.53,5.738-2.685,4.008-8.235
				c-1.346-4.342-5.612-7.485-10.391-6.049c-1.744,0.528-5.73,2.683-4.003,8.229C82.941,129.584,87.198,132.733,91.973,131.297z
				 M86.036,115.95c5.896-1.774,12.158,0.035,13.675,4.912c1.352,4.342-1.496,9.479-8.185,11.495
				c-5.885,1.773-12.154-0.035-13.671-4.912C76.5,123.103,79.351,117.964,86.036,115.95z"/>
			<polygon clip-path="url(#SVGID_2_)" fill="#FFFFFF" points="94.569,216.337 94.569,231.732 92.866,231.732 92.866,224.396 
				85.497,224.396 85.497,231.732 83.792,231.732 83.792,216.337 85.497,216.337 85.497,222.948 92.866,222.948 92.866,216.337 			
				"/>
			<path clip-path="url(#SVGID_2_)" fill="#FFFFFF" d="M104.919,225.166c0-2.048-0.98-3.412-2.641-3.412
				c-1.852,0-2.855,1.364-2.981,3.412H104.919z M106.794,229.366c-0.725,1.259-1.748,2.579-4.261,2.579
				c-2.471,0-4.813-1.703-4.813-5.757c0-3.582,1.79-5.757,4.516-5.757c2.298,0,4.216,1.492,4.216,5.032v1.024h-7.197
				c0,2.43,1.448,4.137,3.279,4.137c1.363,0,2.428-0.725,3.068-1.877L106.794,229.366z"/>
			<path clip-path="url(#SVGID_2_)" fill="#FFFFFF" d="M115.185,225.742c-3.513,0.618-5.239,1.639-5.239,3.176
				c0,1.022,0.98,1.707,1.833,1.707c1.105,0,2.513-0.812,3.406-1.834V225.742z M108.731,222.776
				c0.704-1.279,2.066-2.345,4.152-2.345c1.875,0,3.835,0.895,3.835,3.327v5.585c0,1.216,0.106,1.813,0.255,2.389h-1.576
				l-0.172-1.534c-0.765,0.854-2,1.747-3.661,1.747c-1.705,0-3.153-1.022-3.153-3.049c0-2.432,1.853-3.646,6.772-4.521v-0.596
				c0-1.473-0.957-2.025-2.279-2.025c-1.703,0-2.535,0.98-2.832,1.729L108.731,222.776z"/>
			<rect x="120.359" y="216.337" clip-path="url(#SVGID_2_)" fill="#FFFFFF" width="1.535" height="15.397"/>
			<path clip-path="url(#SVGID_2_)" fill="#FFFFFF" d="M126.281,220.645v-3.646h1.535v3.646h2.556v1.322h-2.556v7.889
				c0,0.513,0.361,0.77,1.257,0.77c0.51,0,0.959-0.042,1.363-0.106v1.257c-0.276,0.085-0.895,0.17-1.79,0.17
				c-1.661,0-2.364-0.425-2.364-1.832v-8.146h-1.81v-1.322H126.281z"/>
			<path clip-path="url(#SVGID_2_)" fill="#FFFFFF" d="M134.608,216.337v5.8h0.043c0.872-0.98,2.022-1.705,3.278-1.705
				c1.642,0,3.196,0.853,3.196,3.242v8.059h-1.535v-8.019c0-1.471-0.702-1.96-1.809-1.96c-1.15,0-2.471,0.938-3.173,1.684v8.295
				h-1.533v-15.396H134.608z"/>
			<path clip-path="url(#SVGID_2_)" fill="#FFFFFF" d="M161.7,227.126c-0.683,2.857-2.26,4.819-5.411,4.819
				c-3.451,0-5.879-2.515-5.879-7.91c0-5.011,2.173-7.913,5.879-7.913c2.854,0,4.514,1.665,5.196,4.479l-1.575,0.47
				c-0.555-2.177-1.533-3.497-3.836-3.497c-2.211,0-3.959,2.047-3.959,6.461c0,4.458,1.748,6.462,4.302,6.462
				c2.364,0,3.28-1.792,3.746-3.669L161.7,227.126z"/>
			<rect x="164.722" y="216.337" clip-path="url(#SVGID_2_)" fill="#FFFFFF" width="1.535" height="15.397"/>
			<path clip-path="url(#SVGID_2_)" fill="#FFFFFF" d="M176.861,231.732v-1.49h-0.042c-0.874,0.979-2.022,1.703-3.278,1.703
				c-1.642,0-3.196-0.851-3.196-3.24v-8.061h1.533v8.017c0,1.473,0.702,1.964,1.81,1.964c1.15,0,2.471-0.938,3.174-1.686v-8.295
				h1.533v11.088H176.861z"/>
			<path clip-path="url(#SVGID_2_)" fill="#FFFFFF" d="M183.699,229.131c1.085,1.067,1.81,1.494,2.79,1.494
				c1.915,0,3.13-1.537,3.13-4.352c0-3.346-1.342-4.52-3.13-4.52c-0.917,0-1.96,0.616-2.79,1.535V229.131z M183.699,216.337v5.374
				l0.083-0.042c0.853-0.706,1.876-1.237,2.919-1.237c1.874,0,4.45,1.45,4.45,5.757c0,4.437-2.576,5.757-4.535,5.757
				c-1.32,0-2.3-0.553-3.195-1.386l-0.274,1.173h-1.065c0.128-0.81,0.083-1.619,0.083-2.43v-12.966H183.699z"/>
			<path clip-path="url(#SVGID_2_)" fill="#FFFFFF" d="M193.858,228.918c0.723,1.046,1.788,1.707,3.172,1.707
				c1.663,0,2.386-0.896,2.386-1.834c0-2.815-6.56-1.323-6.432-5.375c0.063-1.919,1.533-3.006,3.663-2.984
				c1.448,0.021,3.047,0.81,3.791,1.938l-1.065,0.939c-0.85-1.044-1.66-1.556-2.853-1.556c-1.302,0-2.003,0.661-2.003,1.642
				c0,2.41,6.432,1.173,6.432,5.31c0,2.154-1.873,3.24-3.874,3.24c-1.727,0-3.408-0.746-4.431-2.109L193.858,228.918z"/>
		</g>
	</g>
</g>
<g id="Guides">
</g>
<g id="Layer_1">
</g>
</svg>
